<svg xmlns="http://www.w3.org/2000/svg" viewBox="0 0 25.53 25.53"><defs><style>.cls-1{fill:#fff;}</style></defs><g id="Layer_2" data-name="Layer 2"><g id="Layer_1-2" data-name="Layer 1"><path class="cls-1" d="M12.77,25.53A12.77,12.77,0,1,1,25.53,12.77,12.78,12.78,0,0,1,12.77,25.53Zm0-23.46a10.7,10.7,0,1,0,10.7,10.7A10.71,10.71,0,0,0,12.77,2.07Z"/><path class="cls-1" d="M18.56,10.13h-12a1,1,0,0,1,0-2h12a1,1,0,0,1,0,2Z"/><path class="cls-1" d="M18.56,14h-12a1,1,0,0,1,0-2h12a1,1,0,0,1,0,2Z"/><path class="cls-1" d="M18.56,18h-12a1,1,0,0,1,0-2h12a1,1,0,0,1,0,2Z"/></g></g></svg>