<svg xmlns="http://www.w3.org/2000/svg" viewBox="0 0 25.53 25.53"><defs><style>.cls-1{fill:#fff;}</style></defs><g id="Layer_2" data-name="Layer 2"><g id="Layer_1-2" data-name="Layer 1"><path class="cls-1" d="M12.77,25.53A12.77,12.77,0,1,1,25.53,12.77,12.78,12.78,0,0,1,12.77,25.53Zm0-23.46a10.7,10.7,0,1,0,10.7,10.7A10.71,10.71,0,0,0,12.77,2.07Z"/><path class="cls-1" d="M16.86,8.85H9a1.65,1.65,0,0,0-1.64,1.64v4.27A1.64,1.64,0,0,0,9,16.39h7.83a1.63,1.63,0,0,0,1.63-1.63V10.49A1.64,1.64,0,0,0,16.86,8.85Zm0,.43a1.25,1.25,0,0,1,.63.18l-.07.06L13.9,12.43a1.48,1.48,0,0,1-1,.32,1.52,1.52,0,0,1-1-.32L8.47,9.52,8.4,9.46A1.22,1.22,0,0,1,9,9.28Zm1.21,5.48A1.21,1.21,0,0,1,16.86,16H9a1.21,1.21,0,0,1-1.21-1.21V10.49a1.24,1.24,0,0,1,.26-.75.65.65,0,0,0,.12.11l3.51,2.91a2,2,0,0,0,2.47,0l3.51-2.91.12-.11a1.24,1.24,0,0,1,.26.75Z"/><path class="cls-1" d="M16.86,16.89H9a2.13,2.13,0,0,1-2.14-2.13V10.49A2.14,2.14,0,0,1,9,8.35h7.83A2.13,2.13,0,0,1,19,10.49v4.27A2.13,2.13,0,0,1,16.86,16.89ZM8.32,10.6v4.16a.71.71,0,0,0,.71.71h7.83a.71.71,0,0,0,.71-.71V10.6l-3.08,2.54a2.55,2.55,0,0,1-3.1,0Zm1.25-.82L12.3,12a1.11,1.11,0,0,0,1.28,0l2.74-2.26Z"/></g></g></svg>