<svg xmlns="http://www.w3.org/2000/svg" viewBox="0 0 25.53 25.53"><defs><style>.cls-1{fill:#fff;}</style></defs><g id="Layer_2" data-name="Layer 2"><g id="Layer_1-2" data-name="Layer 1"><path class="cls-1" d="M12.77,25.53A12.77,12.77,0,1,1,25.53,12.77,12.78,12.78,0,0,1,12.77,25.53Zm0-23.46a10.7,10.7,0,1,0,10.7,10.7A10.71,10.71,0,0,0,12.77,2.07Z"/><circle class="cls-1" cx="8.49" cy="10.33" r="1.56"/><circle class="cls-1" cx="17.05" cy="10.33" r="1.56"/><path class="cls-1" d="M12.77,18.61a3.2,3.2,0,0,1-3.19-3.19.47.47,0,1,1,.94,0,2.25,2.25,0,0,0,4.49,0,.47.47,0,1,1,.94,0A3.2,3.2,0,0,1,12.77,18.61Z"/></g></g></svg>